<svg width="181" height="137" viewBox="0 0 181 137" fill="none" xmlns="http://www.w3.org/2000/svg">
<path d="M180.85 121.244C180.85 125.062 178.366 127.96 172.202 127.96C168.752 127.96 165.946 127.178 164.198 126.258V122.072C166.176 123.222 169.488 124.326 172.386 124.326C175.422 124.326 176.986 123.084 176.986 121.29C176.986 119.542 175.652 118.53 171.282 117.472C166.176 116.23 164.014 114.252 164.014 110.48C164.014 106.478 167.096 104.04 172.34 104.04C175.33 104.04 178.044 104.776 179.746 105.696V109.79C176.986 108.41 174.732 107.674 172.294 107.674C169.396 107.674 167.832 108.686 167.832 110.48C167.832 112.09 168.936 113.102 173.168 114.114C178.274 115.356 180.85 117.242 180.85 121.244Z" fill="#101214"/>
<path d="M160.411 121.244C160.411 125.062 157.927 127.96 151.763 127.96C148.313 127.96 145.507 127.178 143.759 126.258V122.072C145.737 123.222 149.049 124.326 151.947 124.326C154.983 124.326 156.547 123.084 156.547 121.29C156.547 119.542 155.213 118.53 150.843 117.472C145.737 116.23 143.575 114.252 143.575 110.48C143.575 106.478 146.657 104.04 151.901 104.04C154.891 104.04 157.605 104.776 159.307 105.696V109.79C156.547 108.41 154.293 107.674 151.855 107.674C148.957 107.674 147.393 108.686 147.393 110.48C147.393 112.09 148.497 113.102 152.729 114.114C157.835 115.356 160.411 117.242 160.411 121.244Z" fill="#101214"/>
<path d="M121.601 116C121.601 121.52 123.809 124.28 127.903 124.28C131.445 124.28 134.619 122.026 134.619 116.92V115.08C134.619 109.974 131.721 107.72 128.363 107.72C123.901 107.72 121.601 110.664 121.601 116ZM134.619 127.5V123.36C133.147 126.396 130.387 127.96 126.845 127.96C120.727 127.96 117.645 122.762 117.645 116C117.645 109.514 120.865 104.04 127.305 104.04C130.663 104.04 133.239 105.558 134.619 108.548V104.5H138.575V127.5H134.619Z" fill="#101214"/>
<path d="M110.483 116C110.483 110.48 108.275 107.72 104.181 107.72C100.639 107.72 97.4653 109.974 97.4653 115.08V116.92C97.4653 122.026 100.363 124.28 103.721 124.28C108.183 124.28 110.483 121.336 110.483 116ZM104.779 127.96C101.421 127.96 98.8453 126.442 97.4653 123.452V136.47H93.5093V104.5H97.4653V108.64C98.9373 105.604 101.697 104.04 105.239 104.04C111.357 104.04 114.439 109.238 114.439 116C114.439 122.486 111.219 127.96 104.779 127.96Z" fill="#101214"/>
<path d="M72.405 114.712V127.5H68.449V113.608C68.449 109.468 66.793 107.628 63.021 107.628C59.341 107.628 56.811 110.066 56.811 114.712V127.5H52.855V104.5H56.811V108.272C58.283 105.558 60.997 104.04 64.079 104.04C67.989 104.04 70.657 106.018 71.807 109.652C73.095 106.11 76.177 104.04 79.995 104.04C85.147 104.04 87.999 107.536 87.999 114.022V127.5H84.043V114.712C84.043 109.974 82.387 107.628 78.615 107.628C74.935 107.628 72.405 110.066 72.405 114.712Z" fill="#101214"/>
<path d="M37.4016 127.96C30.5016 127.96 26.4536 122.854 26.4536 115.954C26.4536 109.054 30.5016 104.04 37.4016 104.04C44.2556 104.04 48.2576 109.054 48.2576 115.954C48.2576 122.854 44.2556 127.96 37.4016 127.96ZM37.4016 107.72C32.4796 107.72 30.3176 111.584 30.3176 115.954C30.3176 120.324 32.4796 124.28 37.4016 124.28C42.2776 124.28 44.3936 120.324 44.3936 115.954C44.3936 111.584 42.2776 107.72 37.4016 107.72Z" fill="#101214"/>
<path d="M23.552 122.164V126.166C21.666 127.408 18.676 127.96 15.548 127.96C5.612 127.96 0 121.98 0 112.458C0 103.258 5.612 96.8179 15.456 96.8179C18.4 96.8179 21.344 97.3699 23.506 98.9339V102.936C21.344 101.556 18.952 100.82 15.456 100.82C8.372 100.82 4.14 105.512 4.14 112.458C4.14 119.404 8.51 124.004 15.686 124.004C18.86 124.004 21.344 123.268 23.552 122.164Z" fill="#101214"/>
<path d="M52.7947 18.75C52.7947 8.39466 61.1893 0 71.5447 0H109.045C119.4 0 127.795 8.39466 127.795 18.75V56.25C127.795 66.6053 119.4 75 109.045 75H71.5447C61.1893 75 52.7947 66.6053 52.7947 56.25V18.75Z" fill="#94C748"/>
<path d="M91.9134 35.5343V45.4815H81.9472V35.5343H91.9134V25.5938H73.7332C72.7622 25.6004 71.981 26.3794 71.9877 27.3348C71.9877 27.3426 71.9877 27.3504 71.9877 27.3582V53.71C71.9676 54.6654 72.7388 55.4544 73.7086 55.4745C73.7164 55.4745 73.7254 55.4745 73.7332 55.4745H100.11C101.081 55.4678 101.862 54.6888 101.855 53.7335C101.855 53.7257 101.855 53.7179 101.855 53.71V35.5343H91.9134Z" fill="#101214"/>
<path d="M91.9136 15.6484V25.5945H101.903V35.5351H111.839V17.3895C111.859 16.4341 111.088 15.6451 110.118 15.625C110.111 15.625 110.102 15.625 110.094 15.625L91.9136 15.6484Z" fill="#101214"/>
</svg>
