<svg width="243" height="48" viewBox="0 0 243 48" fill="none" xmlns="http://www.w3.org/2000/svg">
<path d="M242.69 31.744C242.69 35.562 240.206 38.46 234.042 38.46C230.592 38.46 227.786 37.678 226.038 36.758V32.572C228.016 33.722 231.328 34.826 234.226 34.826C237.262 34.826 238.826 33.584 238.826 31.79C238.826 30.042 237.492 29.03 233.122 27.972C228.016 26.73 225.854 24.752 225.854 20.98C225.854 16.978 228.936 14.54 234.18 14.54C237.17 14.54 239.884 15.276 241.586 16.196V20.29C238.826 18.91 236.572 18.174 234.134 18.174C231.236 18.174 229.672 19.186 229.672 20.98C229.672 22.59 230.776 23.602 235.008 24.614C240.114 25.856 242.69 27.742 242.69 31.744Z" fill="white"/>
<path d="M222.25 31.744C222.25 35.562 219.766 38.46 213.602 38.46C210.152 38.46 207.346 37.678 205.598 36.758V32.572C207.576 33.722 210.888 34.826 213.786 34.826C216.822 34.826 218.386 33.584 218.386 31.79C218.386 30.042 217.052 29.03 212.682 27.972C207.576 26.73 205.414 24.752 205.414 20.98C205.414 16.978 208.496 14.54 213.74 14.54C216.73 14.54 219.444 15.276 221.146 16.196V20.29C218.386 18.91 216.132 18.174 213.694 18.174C210.796 18.174 209.232 19.186 209.232 20.98C209.232 22.59 210.336 23.602 214.568 24.614C219.674 25.856 222.25 27.742 222.25 31.744Z" fill="white"/>
<path d="M183.44 26.5C183.44 32.02 185.648 34.78 189.742 34.78C193.284 34.78 196.458 32.526 196.458 27.42V25.58C196.458 20.474 193.56 18.22 190.202 18.22C185.74 18.22 183.44 21.164 183.44 26.5ZM196.458 38V33.86C194.986 36.896 192.226 38.46 188.684 38.46C182.566 38.46 179.484 33.262 179.484 26.5C179.484 20.014 182.704 14.54 189.144 14.54C192.502 14.54 195.078 16.058 196.458 19.048V15H200.414V38H196.458Z" fill="white"/>
<path d="M172.324 26.5C172.324 20.98 170.116 18.22 166.022 18.22C162.48 18.22 159.306 20.474 159.306 25.58V27.42C159.306 32.526 162.204 34.78 165.562 34.78C170.024 34.78 172.324 31.836 172.324 26.5ZM166.62 38.46C163.262 38.46 160.686 36.942 159.306 33.952V46.97H155.35V15H159.306V19.14C160.778 16.104 163.538 14.54 167.08 14.54C173.198 14.54 176.28 19.738 176.28 26.5C176.28 32.986 173.06 38.46 166.62 38.46Z" fill="white"/>
<path d="M134.245 25.212V38H130.289V24.108C130.289 19.968 128.633 18.128 124.861 18.128C121.181 18.128 118.651 20.566 118.651 25.212V38H114.695V15H118.651V18.772C120.123 16.058 122.837 14.54 125.919 14.54C129.829 14.54 132.497 16.518 133.647 20.152C134.935 16.61 138.017 14.54 141.835 14.54C146.987 14.54 149.839 18.036 149.839 24.522V38H145.883V25.212C145.883 20.474 144.227 18.128 140.455 18.128C136.775 18.128 134.245 20.566 134.245 25.212Z" fill="white"/>
<path d="M99.241 38.46C92.341 38.46 88.293 33.354 88.293 26.454C88.293 19.554 92.341 14.54 99.241 14.54C106.095 14.54 110.097 19.554 110.097 26.454C110.097 33.354 106.095 38.46 99.241 38.46ZM99.241 18.22C94.319 18.22 92.157 22.084 92.157 26.454C92.157 30.824 94.319 34.78 99.241 34.78C104.117 34.78 106.233 30.824 106.233 26.454C106.233 22.084 104.117 18.22 99.241 18.22Z" fill="white"/>
<path d="M85.3918 32.6644V36.6664C83.5058 37.9084 80.5158 38.4604 77.3878 38.4604C67.4518 38.4604 61.8398 32.4804 61.8398 22.9584C61.8398 13.7584 67.4518 7.31836 77.2958 7.31836C80.2398 7.31836 83.1838 7.87036 85.3458 9.43436V13.4364C83.1838 12.0564 80.7918 11.3204 77.2958 11.3204C70.2118 11.3204 65.9798 16.0124 65.9798 22.9584C65.9798 29.9044 70.3498 34.5044 77.5258 34.5044C80.6998 34.5044 83.1838 33.7684 85.3918 32.6644Z" fill="white"/>
<path d="M0 12C0 5.37258 5.37258 0 12 0H36C42.6274 0 48 5.37258 48 12V36C48 42.6274 42.6274 48 36 48H12C5.37258 48 0 42.6274 0 36V12Z" fill="#94C748"/>
<path d="M25.0359 22.7418V29.108H18.6575V22.7418H25.0359V16.3799H13.4006C12.7791 16.3842 12.2792 16.8827 12.2834 17.4941C12.2834 17.4991 12.2834 17.5041 12.2834 17.5091V34.3743C12.2706 34.9857 12.7641 35.4907 13.3848 35.5036C13.3898 35.5036 13.3956 35.5036 13.4006 35.5036H30.2814C30.9029 35.4993 31.4028 35.0007 31.3986 34.3893C31.3986 34.3843 31.3986 34.3793 31.3986 34.3743V22.7418H25.0359Z" fill="#101214"/>
<path d="M25.0361 10.015V16.3805H31.4295V22.7424H37.7886V11.1292C37.8014 10.5178 37.3079 10.0129 36.6872 10C36.6822 10 36.6765 10 36.6715 10L25.0361 10.015Z" fill="#101214"/>
</svg>
