<svg width="181" height="137" viewBox="0 0 181 137" fill="none" xmlns="http://www.w3.org/2000/svg">
<path d="M180.85 121.244C180.85 125.062 178.366 127.96 172.202 127.96C168.752 127.96 165.946 127.178 164.198 126.258V122.072C166.176 123.222 169.488 124.326 172.386 124.326C175.422 124.326 176.986 123.084 176.986 121.29C176.986 119.542 175.652 118.53 171.282 117.472C166.176 116.23 164.014 114.252 164.014 110.48C164.014 106.478 167.096 104.04 172.34 104.04C175.33 104.04 178.044 104.776 179.746 105.696V109.79C176.986 108.41 174.732 107.674 172.294 107.674C169.396 107.674 167.832 108.686 167.832 110.48C167.832 112.09 168.936 113.102 173.168 114.114C178.274 115.356 180.85 117.242 180.85 121.244Z" fill="white"/>
<path d="M160.41 121.244C160.41 125.062 157.926 127.96 151.762 127.96C148.312 127.96 145.506 127.178 143.758 126.258V122.072C145.736 123.222 149.048 124.326 151.946 124.326C154.982 124.326 156.546 123.084 156.546 121.29C156.546 119.542 155.212 118.53 150.842 117.472C145.736 116.23 143.574 114.252 143.574 110.48C143.574 106.478 146.656 104.04 151.9 104.04C154.89 104.04 157.604 104.776 159.306 105.696V109.79C156.546 108.41 154.292 107.674 151.854 107.674C148.956 107.674 147.392 108.686 147.392 110.48C147.392 112.09 148.496 113.102 152.728 114.114C157.834 115.356 160.41 117.242 160.41 121.244Z" fill="white"/>
<path d="M121.601 116C121.601 121.52 123.809 124.28 127.903 124.28C131.445 124.28 134.619 122.026 134.619 116.92V115.08C134.619 109.974 131.721 107.72 128.363 107.72C123.901 107.72 121.601 110.664 121.601 116ZM134.619 127.5V123.36C133.147 126.396 130.387 127.96 126.845 127.96C120.727 127.96 117.645 122.762 117.645 116C117.645 109.514 120.865 104.04 127.305 104.04C130.663 104.04 133.239 105.558 134.619 108.548V104.5H138.575V127.5H134.619Z" fill="white"/>
<path d="M110.484 116C110.484 110.48 108.276 107.72 104.182 107.72C100.64 107.72 97.4658 109.974 97.4658 115.08V116.92C97.4658 122.026 100.364 124.28 103.722 124.28C108.184 124.28 110.484 121.336 110.484 116ZM104.78 127.96C101.422 127.96 98.8458 126.442 97.4658 123.452V136.47H93.5098V104.5H97.4658V108.64C98.9378 105.604 101.698 104.04 105.24 104.04C111.358 104.04 114.44 109.238 114.44 116C114.44 122.486 111.22 127.96 104.78 127.96Z" fill="white"/>
<path d="M72.4055 114.712V127.5H68.4495V113.608C68.4495 109.468 66.7935 107.628 63.0215 107.628C59.3415 107.628 56.8115 110.066 56.8115 114.712V127.5H52.8555V104.5H56.8115V108.272C58.2835 105.558 60.9975 104.04 64.0795 104.04C67.9895 104.04 70.6575 106.018 71.8075 109.652C73.0955 106.11 76.1775 104.04 79.9955 104.04C85.1475 104.04 87.9995 107.536 87.9995 114.022V127.5H84.0435V114.712C84.0435 109.974 82.3875 107.628 78.6155 107.628C74.9355 107.628 72.4055 110.066 72.4055 114.712Z" fill="white"/>
<path d="M37.4011 127.96C30.5011 127.96 26.4531 122.854 26.4531 115.954C26.4531 109.054 30.5011 104.04 37.4011 104.04C44.2551 104.04 48.2571 109.054 48.2571 115.954C48.2571 122.854 44.2551 127.96 37.4011 127.96ZM37.4011 107.72C32.4791 107.72 30.3171 111.584 30.3171 115.954C30.3171 120.324 32.4791 124.28 37.4011 124.28C42.2771 124.28 44.3931 120.324 44.3931 115.954C44.3931 111.584 42.2771 107.72 37.4011 107.72Z" fill="white"/>
<path d="M23.552 122.164V126.166C21.666 127.408 18.676 127.96 15.548 127.96C5.612 127.96 0 121.98 0 112.458C0 103.258 5.612 96.8184 15.456 96.8184C18.4 96.8184 21.344 97.3704 23.506 98.9344V102.936C21.344 101.556 18.952 100.82 15.456 100.82C8.372 100.82 4.14 105.512 4.14 112.458C4.14 119.404 8.51 124.004 15.686 124.004C18.86 124.004 21.344 123.268 23.552 122.164Z" fill="white"/>
<path d="M52.7949 18.75C52.7949 8.39466 61.1896 0 71.5449 0H109.045C119.4 0 127.795 8.39466 127.795 18.75V56.25C127.795 66.6053 119.4 75 109.045 75H71.5449C61.1896 75 52.7949 66.6053 52.7949 56.25V18.75Z" fill="#94C748"/>
<path d="M91.9134 35.5343V45.4815H81.9472V35.5343H91.9134V25.5938H73.7332C72.7622 25.6004 71.981 26.3794 71.9877 27.3348C71.9877 27.3426 71.9877 27.3504 71.9877 27.3582V53.71C71.9676 54.6654 72.7388 55.4544 73.7086 55.4745C73.7164 55.4745 73.7254 55.4745 73.7332 55.4745H100.11C101.081 55.4678 101.862 54.6888 101.855 53.7335C101.855 53.7257 101.855 53.7179 101.855 53.71V35.5343H91.9134Z" fill="#101214"/>
<path d="M91.9131 15.6484V25.5945H101.903V35.5351H111.839V17.3895C111.859 16.4341 111.088 15.6451 110.118 15.625C110.11 15.625 110.101 15.625 110.093 15.625L91.9131 15.6484Z" fill="#101214"/>
</svg>
