<svg width="48" height="48" viewBox="0 0 48 48" fill="none" xmlns="http://www.w3.org/2000/svg">
<path d="M0 12C0 5.37258 5.37258 0 12 0H36C42.6274 0 48 5.37258 48 12V36C48 42.6274 42.6274 48 36 48H12C5.37258 48 0 42.6274 0 36V12Z" fill="#94C748"/>
<path d="M25.036 22.7423V29.1085H18.6577V22.7423H25.036V16.3804H13.4007C12.7793 16.3847 12.2793 16.8832 12.2836 17.4946C12.2836 17.4996 12.2836 17.5046 12.2836 17.5096V34.3748C12.2707 34.9862 12.7643 35.4912 13.385 35.504C13.39 35.504 13.3957 35.504 13.4007 35.504H30.2816C30.903 35.4998 31.403 35.0012 31.3987 34.3898C31.3987 34.3848 31.3987 34.3798 31.3987 34.3748V22.7423H25.036Z" fill="#101214"/>
<path d="M25.0361 10.015V16.3805H31.4295V22.7424H37.7886V11.1292C37.8014 10.5178 37.3079 10.0129 36.6872 10C36.6822 10 36.6765 10 36.6715 10L25.0361 10.015Z" fill="#101214"/>
</svg>
