<svg width="243" height="48" viewBox="0 0 243 48" fill="none" xmlns="http://www.w3.org/2000/svg">
<path d="M242.69 31.744C242.69 35.562 240.206 38.46 234.042 38.46C230.592 38.46 227.786 37.678 226.038 36.758V32.572C228.016 33.722 231.328 34.826 234.226 34.826C237.262 34.826 238.826 33.584 238.826 31.79C238.826 30.042 237.492 29.03 233.122 27.972C228.016 26.73 225.854 24.752 225.854 20.98C225.854 16.978 228.936 14.54 234.18 14.54C237.17 14.54 239.884 15.276 241.586 16.196V20.29C238.826 18.91 236.572 18.174 234.134 18.174C231.236 18.174 229.672 19.186 229.672 20.98C229.672 22.59 230.776 23.602 235.008 24.614C240.114 25.856 242.69 27.742 242.69 31.744Z" fill="#101214"/>
<path d="M222.251 31.744C222.251 35.562 219.767 38.46 213.603 38.46C210.153 38.46 207.347 37.678 205.599 36.758V32.572C207.577 33.722 210.889 34.826 213.787 34.826C216.823 34.826 218.387 33.584 218.387 31.79C218.387 30.042 217.053 29.03 212.683 27.972C207.577 26.73 205.415 24.752 205.415 20.98C205.415 16.978 208.497 14.54 213.741 14.54C216.731 14.54 219.445 15.276 221.147 16.196V20.29C218.387 18.91 216.133 18.174 213.695 18.174C210.797 18.174 209.233 19.186 209.233 20.98C209.233 22.59 210.337 23.602 214.569 24.614C219.675 25.856 222.251 27.742 222.251 31.744Z" fill="#101214"/>
<path d="M183.441 26.5C183.441 32.02 185.649 34.78 189.743 34.78C193.285 34.78 196.459 32.526 196.459 27.42V25.58C196.459 20.474 193.561 18.22 190.203 18.22C185.741 18.22 183.441 21.164 183.441 26.5ZM196.459 38V33.86C194.987 36.896 192.227 38.46 188.685 38.46C182.567 38.46 179.485 33.262 179.485 26.5C179.485 20.014 182.705 14.54 189.145 14.54C192.503 14.54 195.079 16.058 196.459 19.048V15H200.415V38H196.459Z" fill="#101214"/>
<path d="M172.323 26.5C172.323 20.98 170.115 18.22 166.021 18.22C162.479 18.22 159.305 20.474 159.305 25.58V27.42C159.305 32.526 162.203 34.78 165.561 34.78C170.023 34.78 172.323 31.836 172.323 26.5ZM166.619 38.46C163.261 38.46 160.685 36.942 159.305 33.952V46.97H155.349V15H159.305V19.14C160.777 16.104 163.537 14.54 167.079 14.54C173.197 14.54 176.279 19.738 176.279 26.5C176.279 32.986 173.059 38.46 166.619 38.46Z" fill="#101214"/>
<path d="M134.245 25.212V38H130.289V24.108C130.289 19.968 128.633 18.128 124.861 18.128C121.181 18.128 118.651 20.566 118.651 25.212V38H114.695V15H118.651V18.772C120.123 16.058 122.837 14.54 125.919 14.54C129.829 14.54 132.497 16.518 133.647 20.152C134.935 16.61 138.017 14.54 141.835 14.54C146.987 14.54 149.839 18.036 149.839 24.522V38H145.883V25.212C145.883 20.474 144.227 18.128 140.455 18.128C136.775 18.128 134.245 20.566 134.245 25.212Z" fill="#101214"/>
<path d="M99.2416 38.46C92.3416 38.46 88.2936 33.354 88.2936 26.454C88.2936 19.554 92.3416 14.54 99.2416 14.54C106.096 14.54 110.098 19.554 110.098 26.454C110.098 33.354 106.096 38.46 99.2416 38.46ZM99.2416 18.22C94.3196 18.22 92.1576 22.084 92.1576 26.454C92.1576 30.824 94.3196 34.78 99.2416 34.78C104.118 34.78 106.234 30.824 106.234 26.454C106.234 22.084 104.118 18.22 99.2416 18.22Z" fill="#101214"/>
<path d="M85.392 32.6639V36.6659C83.506 37.9079 80.516 38.4599 77.388 38.4599C67.452 38.4599 61.84 32.4799 61.84 22.9579C61.84 13.7579 67.452 7.31787 77.296 7.31787C80.24 7.31787 83.184 7.86987 85.346 9.43387V13.4359C83.184 12.0559 80.792 11.3199 77.296 11.3199C70.212 11.3199 65.98 16.0119 65.98 22.9579C65.98 29.9039 70.35 34.5039 77.526 34.5039C80.7 34.5039 83.184 33.7679 85.392 32.6639Z" fill="#101214"/>
<path d="M0 12C0 5.37258 5.37258 0 12 0H36C42.6274 0 48 5.37258 48 12V36C48 42.6274 42.6274 48 36 48H12C5.37258 48 0 42.6274 0 36V12Z" fill="#94C748"/>
<path d="M25.036 22.7423V29.1085H18.6577V22.7423H25.036V16.3804H13.4007C12.7793 16.3847 12.2793 16.8832 12.2836 17.4946C12.2836 17.4996 12.2836 17.5046 12.2836 17.5096V34.3748C12.2707 34.9862 12.7643 35.4912 13.385 35.504C13.39 35.504 13.3957 35.504 13.4007 35.504H30.2816C30.903 35.4998 31.403 35.0012 31.3987 34.3898C31.3987 34.3848 31.3987 34.3798 31.3987 34.3748V22.7423H25.036Z" fill="#101214"/>
<path d="M25.0361 10.015V16.3805H31.4295V22.7424H37.7886V11.1292C37.8014 10.5178 37.3079 10.0129 36.6872 10C36.6822 10 36.6765 10 36.6715 10L25.0361 10.015Z" fill="#101214"/>
</svg>
