<svg width="332" height="94" viewBox="0 0 332 94" fill="none" xmlns="http://www.w3.org/2000/svg">
<path d="M325.282 76.87C325.282 78.894 326.478 80.274 328.916 80.274C329.836 80.274 330.71 80.09 331.4 79.952V83.77C330.71 83.954 329.928 84.138 328.732 84.138C323.81 84.138 321.418 81.24 321.418 76.962V64.68H317.692V61H321.418V56.124H325.282V61H331.4V64.68H325.282V76.87Z" fill="white"/>
<path d="M314.292 70.522V84H310.336V70.108C310.336 65.968 308.68 64.128 304.908 64.128C301.228 64.128 298.698 66.566 298.698 71.212V84H294.742V61H298.698V64.772C300.17 62.058 302.884 60.54 305.966 60.54C311.256 60.54 314.292 64.174 314.292 70.522Z" fill="white"/>
<path d="M279.911 64.128C275.725 64.128 273.609 66.842 273.195 70.844H286.029C285.799 66.566 283.867 64.128 279.911 64.128ZM288.743 83.08C286.857 84.092 283.959 84.46 281.613 84.46C273.011 84.46 269.239 79.492 269.239 72.454C269.239 65.508 273.103 60.54 280.095 60.54C287.179 60.54 290.031 65.462 290.031 72.454V74.248H273.241C273.793 78.158 276.323 80.688 281.751 80.688C284.419 80.688 286.673 80.182 288.743 79.446V83.08Z" fill="white"/>
<path d="M249.515 71.212V84H245.559V70.108C245.559 65.968 243.903 64.128 240.131 64.128C236.451 64.128 233.921 66.566 233.921 71.212V84H229.965V61H233.921V64.772C235.393 62.058 238.107 60.54 241.189 60.54C245.099 60.54 247.767 62.518 248.917 66.152C250.205 62.61 253.287 60.54 257.105 60.54C262.257 60.54 265.109 64.036 265.109 70.522V84H261.153V71.212C261.153 66.474 259.497 64.128 255.725 64.128C252.045 64.128 249.515 66.566 249.515 71.212Z" fill="white"/>
<path d="M215.134 64.128C210.948 64.128 208.832 66.842 208.418 70.844H221.252C221.022 66.566 219.09 64.128 215.134 64.128ZM223.966 83.08C222.08 84.092 219.182 84.46 216.836 84.46C208.234 84.46 204.462 79.492 204.462 72.454C204.462 65.508 208.326 60.54 215.318 60.54C222.402 60.54 225.254 65.462 225.254 72.454V74.248H208.464C209.016 78.158 211.546 80.688 216.974 80.688C219.642 80.688 221.896 80.182 223.966 79.446V83.08Z" fill="white"/>
<path d="M196.008 82.16V79.86C194.536 82.896 191.776 84.46 188.234 84.46C182.162 84.46 179.126 79.262 179.126 72.5C179.126 66.014 182.3 60.54 188.694 60.54C192.052 60.54 194.628 62.058 196.008 65.048V61H199.872V81.93C199.872 88.692 196.698 93.246 188.464 93.246C184.6 93.246 182.484 92.74 180.276 92.004V88.14C182.806 88.968 185.428 89.52 188.28 89.52C194.03 89.52 196.008 86.438 196.008 82.16ZM182.99 72.5C182.99 78.02 185.198 80.78 189.292 80.78C192.834 80.78 196.008 78.526 196.008 73.42V71.58C196.008 66.474 193.11 64.22 189.752 64.22C185.29 64.22 182.99 67.164 182.99 72.5Z" fill="white"/>
<path d="M157.566 72.5C157.566 78.02 159.774 80.78 163.868 80.78C167.41 80.78 170.584 78.526 170.584 73.42V71.58C170.584 66.474 167.686 64.22 164.328 64.22C159.866 64.22 157.566 67.164 157.566 72.5ZM170.584 84V79.86C169.112 82.896 166.352 84.46 162.81 84.46C156.692 84.46 153.61 79.262 153.61 72.5C153.61 66.014 156.83 60.54 163.27 60.54C166.628 60.54 169.204 62.058 170.584 65.048V61H174.54V84H170.584Z" fill="white"/>
<path d="M149.474 70.522V84H145.518V70.108C145.518 65.968 143.862 64.128 140.09 64.128C136.41 64.128 133.88 66.566 133.88 71.212V84H129.924V61H133.88V64.772C135.352 62.058 138.066 60.54 141.148 60.54C146.438 60.54 149.474 64.174 149.474 70.522Z" fill="white"/>
<path d="M106.984 72.5C106.984 78.02 109.192 80.78 113.286 80.78C116.828 80.78 120.002 78.526 120.002 73.42V71.58C120.002 66.474 117.104 64.22 113.746 64.22C109.284 64.22 106.984 67.164 106.984 72.5ZM120.002 84V79.86C118.53 82.896 115.77 84.46 112.228 84.46C106.11 84.46 103.028 79.262 103.028 72.5C103.028 66.014 106.248 60.54 112.688 60.54C116.046 60.54 118.622 62.058 120.002 65.048V61H123.958V84H120.002Z" fill="white"/>
<path d="M72.8337 67.4863L68.6937 56.2623V84.0003H64.5537V53.7783H71.7297L78.5837 71.1203L81.3897 79.4463L84.1957 71.1203L91.0957 53.7783H97.7657V84.0003H93.6257V56.5843L90.0837 67.4863L83.4137 84.0003H79.4117L72.8337 67.4863Z" fill="white"/>
<path d="M265.896 18.128C261.71 18.128 259.594 20.842 259.18 24.844H272.014C271.784 20.566 269.852 18.128 265.896 18.128ZM274.728 37.08C272.842 38.092 269.944 38.46 267.598 38.46C258.996 38.46 255.224 33.492 255.224 26.454C255.224 19.508 259.088 14.54 266.08 14.54C273.164 14.54 276.016 19.462 276.016 26.454V28.248H259.226C259.778 32.158 262.308 34.688 267.736 34.688C270.404 34.688 272.658 34.182 274.728 33.446V37.08Z" fill="white"/>
<path d="M252.088 33.86V37.402C250.708 38.138 248.592 38.46 246.476 38.46C238.288 38.46 234.47 33.492 234.47 26.454C234.47 19.508 238.288 14.54 246.476 14.54C248.546 14.54 250.156 14.816 251.95 15.644V19.324C250.478 18.634 248.914 18.22 246.752 18.22C240.772 18.22 238.334 21.992 238.334 26.454C238.334 30.916 240.818 34.688 246.844 34.688C249.19 34.688 250.662 34.366 252.088 33.86Z" fill="white"/>
<path d="M225.186 8.92797C225.186 7.17997 226.336 6.16797 227.946 6.16797C229.556 6.16797 230.706 7.17997 230.706 8.92797C230.706 10.676 229.556 11.688 227.946 11.688C226.336 11.688 225.186 10.676 225.186 8.92797ZM225.922 38V15H229.878V38H225.922Z" fill="white"/>
<path d="M213.571 38H208.281L199.357 15H203.497L210.949 34.642L218.355 15H222.495L213.571 38Z" fill="white"/>
<path d="M190.389 24.4296V37.9996H186.525V14.9996H190.389V19.0476C191.723 16.3336 194.023 14.4016 198.531 14.6776V18.5416C193.471 18.0356 190.389 19.5536 190.389 24.4296Z" fill="white"/>
<path d="M171.694 18.128C167.508 18.128 165.392 20.842 164.978 24.844H177.812C177.582 20.566 175.65 18.128 171.694 18.128ZM180.526 37.08C178.64 38.092 175.742 38.46 173.396 38.46C164.794 38.46 161.022 33.492 161.022 26.454C161.022 19.508 164.886 14.54 171.878 14.54C178.962 14.54 181.814 19.462 181.814 26.454V28.248H165.024C165.576 32.158 168.106 34.688 173.534 34.688C176.202 34.688 178.456 34.182 180.526 33.446V37.08Z" fill="white"/>
<path d="M157.536 29.6744C157.536 34.9184 154.408 38.4604 146.91 38.4604C141.068 38.4604 138.354 37.3104 136.008 36.1144V31.8824C138.814 33.3544 143.138 34.4124 147.14 34.4124C151.694 34.4124 153.396 32.6184 153.396 29.9504C153.396 27.2824 151.74 25.8564 145.99 24.4764C139.182 22.8204 136.146 20.4744 136.146 15.5064C136.146 10.8144 139.734 7.31836 146.772 7.31836C151.142 7.31836 153.948 8.37636 156.018 9.52636V13.6664C152.982 11.9184 149.716 11.3664 146.588 11.3664C142.632 11.3664 140.286 12.7464 140.286 15.5064C140.286 17.9904 142.218 19.2324 147.554 20.5664C153.948 22.1764 157.536 24.2464 157.536 29.6744Z" fill="white"/>
<path d="M106.535 26.5C106.535 32.02 108.743 34.78 112.837 34.78C116.379 34.78 119.553 32.526 119.553 27.42V25.58C119.553 20.474 116.655 18.22 113.297 18.22C108.835 18.22 106.535 21.164 106.535 26.5ZM119.553 38V33.86C118.081 36.896 115.321 38.46 111.779 38.46C105.661 38.46 102.579 33.262 102.579 26.5C102.579 20.014 105.799 14.54 112.239 14.54C115.597 14.54 118.173 16.058 119.553 19.048V15H123.509V38H119.553Z" fill="white"/>
<path d="M92.864 24.4296V37.9996H89V14.9996H92.864V19.0476C94.198 16.3336 96.498 14.4016 101.006 14.6776V18.5416C95.946 18.0356 92.864 19.5536 92.864 24.4296Z" fill="white"/>
<path d="M78.3359 8.92797C78.3359 7.17997 79.4859 6.16797 81.0959 6.16797C82.7059 6.16797 83.8559 7.17997 83.8559 8.92797C83.8559 10.676 82.7059 11.688 81.0959 11.688C79.4859 11.688 78.3359 10.676 78.3359 8.92797ZM79.0719 38V15H83.0279V38H79.0719Z" fill="white"/>
<path d="M69.43 29.0763V7.77832H73.57V28.8003C73.57 34.3663 71.132 38.1843 65.428 38.1843C63.266 38.1843 61.61 37.8163 60.46 37.4023V33.4003C61.702 33.9063 63.22 34.1823 64.738 34.1823C68.234 34.1823 69.43 32.0663 69.43 29.0763Z" fill="white"/>
<path d="M0 12C0 5.37258 5.37258 0 12 0H36C42.6274 0 48 5.37258 48 12V36C48 42.6274 42.6274 48 36 48H12C5.37258 48 0 42.6274 0 36V12Z" fill="#FFC716"/>
<g clip-path="url(#clip0_55714_37866)">
<path d="M27.4013 20.4042H36.328C37.6686 20.4042 38.1264 21.6794 37.3089 22.6931L23.3468 39.925C18.8344 36.3282 19.2595 30.6387 22.562 26.4861L27.4013 20.4042ZM20.502 27.2708H11.5754C10.2348 27.2708 9.77703 25.9956 10.5945 24.9819L24.5566 7.75C29.069 11.3468 28.5785 16.9709 25.3087 21.1563L20.502 27.2708Z" fill="#101214"/>
</g>
<defs>
<clipPath id="clip0_55714_37866">
<rect width="27.5283" height="32.175" fill="white" transform="translate(10.1875 7.75)"/>
</clipPath>
</defs>
</svg>
