<svg width="267" height="183" viewBox="0 0 267 183" fill="none" xmlns="http://www.w3.org/2000/svg">
<path d="M260.728 166.37C260.728 168.394 261.924 169.774 264.362 169.774C265.282 169.774 266.156 169.59 266.846 169.452V173.27C266.156 173.454 265.374 173.638 264.178 173.638C259.256 173.638 256.864 170.74 256.864 166.462V154.18H253.138V150.5H256.864V145.624H260.728V150.5H266.846V154.18H260.728V166.37Z" fill="white"/>
<path d="M249.737 160.022V173.5H245.781V159.608C245.781 155.468 244.126 153.628 240.354 153.628C236.674 153.628 234.143 156.066 234.143 160.712V173.5H230.188V150.5H234.143V154.272C235.615 151.558 238.329 150.04 241.411 150.04C246.701 150.04 249.737 153.674 249.737 160.022Z" fill="white"/>
<path d="M215.357 153.628C211.171 153.628 209.055 156.342 208.641 160.344H221.475C221.245 156.066 219.313 153.628 215.357 153.628ZM224.189 172.58C222.303 173.592 219.405 173.96 217.059 173.96C208.457 173.96 204.685 168.992 204.685 161.954C204.685 155.008 208.549 150.04 215.541 150.04C222.625 150.04 225.477 154.962 225.477 161.954V163.748H208.687C209.239 167.658 211.769 170.188 217.197 170.188C219.865 170.188 222.119 169.682 224.189 168.946V172.58Z" fill="white"/>
<path d="M184.96 160.712V173.5H181.004V159.608C181.004 155.468 179.348 153.628 175.576 153.628C171.896 153.628 169.366 156.066 169.366 160.712V173.5H165.41V150.5H169.366V154.272C170.838 151.558 173.552 150.04 176.634 150.04C180.544 150.04 183.212 152.018 184.362 155.652C185.65 152.11 188.732 150.04 192.55 150.04C197.702 150.04 200.554 153.536 200.554 160.022V173.5H196.598V160.712C196.598 155.974 194.942 153.628 191.17 153.628C187.49 153.628 184.96 156.066 184.96 160.712Z" fill="white"/>
<path d="M150.579 153.628C146.393 153.628 144.277 156.342 143.863 160.344H156.697C156.467 156.066 154.535 153.628 150.579 153.628ZM159.411 172.58C157.525 173.592 154.627 173.96 152.281 173.96C143.679 173.96 139.907 168.992 139.907 161.954C139.907 155.008 143.771 150.04 150.763 150.04C157.847 150.04 160.699 154.962 160.699 161.954V163.748H143.909C144.461 167.658 146.991 170.188 152.419 170.188C155.087 170.188 157.341 169.682 159.411 168.946V172.58Z" fill="white"/>
<path d="M131.453 171.66V169.36C129.981 172.396 127.221 173.96 123.679 173.96C117.607 173.96 114.571 168.762 114.571 162C114.571 155.514 117.745 150.04 124.139 150.04C127.497 150.04 130.073 151.558 131.453 154.548V150.5H135.317V171.43C135.317 178.192 132.143 182.746 123.909 182.746C120.045 182.746 117.929 182.24 115.721 181.504V177.64C118.251 178.468 120.873 179.02 123.725 179.02C129.475 179.02 131.453 175.938 131.453 171.66ZM118.435 162C118.435 167.52 120.643 170.28 124.737 170.28C128.279 170.28 131.453 168.026 131.453 162.92V161.08C131.453 155.974 128.555 153.72 125.197 153.72C120.735 153.72 118.435 156.664 118.435 162Z" fill="white"/>
<path d="M93.0117 162C93.0117 167.52 95.2197 170.28 99.3137 170.28C102.856 170.28 106.03 168.026 106.03 162.92V161.08C106.03 155.974 103.132 153.72 99.7737 153.72C95.3117 153.72 93.0117 156.664 93.0117 162ZM106.03 173.5V169.36C104.558 172.396 101.798 173.96 98.2557 173.96C92.1377 173.96 89.0557 168.762 89.0557 162C89.0557 155.514 92.2757 150.04 98.7157 150.04C102.074 150.04 104.65 151.558 106.03 154.548V150.5H109.986V173.5H106.03Z" fill="white"/>
<path d="M84.9191 160.022V173.5H80.9631V159.608C80.9631 155.468 79.3071 153.628 75.5351 153.628C71.8551 153.628 69.3251 156.066 69.3251 160.712V173.5H65.3691V150.5H69.3251V154.272C70.7971 151.558 73.5111 150.04 76.5931 150.04C81.8831 150.04 84.9191 153.674 84.9191 160.022Z" fill="white"/>
<path d="M42.4296 162C42.4296 167.52 44.6376 170.28 48.7316 170.28C52.2736 170.28 55.4476 168.026 55.4476 162.92V161.08C55.4476 155.974 52.5496 153.72 49.1916 153.72C44.7296 153.72 42.4296 156.664 42.4296 162ZM55.4476 173.5V169.36C53.9756 172.396 51.2156 173.96 47.6736 173.96C41.5556 173.96 38.4736 168.762 38.4736 162C38.4736 155.514 41.6936 150.04 48.1336 150.04C51.4916 150.04 54.0676 151.558 55.4476 154.548V150.5H59.4036V173.5H55.4476Z" fill="white"/>
<path d="M8.28 156.986L4.14 145.762V173.5H0V143.278H7.176L14.03 160.62L16.836 168.946L19.642 160.62L26.542 143.278H33.212V173.5H29.072V146.084L25.53 156.986L18.86 173.5H14.858L8.28 156.986Z" fill="white"/>
<path d="M225.419 107.628C221.233 107.628 219.117 110.342 218.703 114.344H231.537C231.307 110.066 229.375 107.628 225.419 107.628ZM234.251 126.58C232.365 127.592 229.467 127.96 227.121 127.96C218.519 127.96 214.747 122.992 214.747 115.954C214.747 109.008 218.611 104.04 225.603 104.04C232.687 104.04 235.539 108.962 235.539 115.954V117.748H218.749C219.301 121.658 221.831 124.188 227.259 124.188C229.927 124.188 232.181 123.682 234.251 122.946V126.58Z" fill="white"/>
<path d="M211.611 123.36V126.902C210.231 127.638 208.115 127.96 205.999 127.96C197.811 127.96 193.993 122.992 193.993 115.954C193.993 109.008 197.811 104.04 205.999 104.04C208.069 104.04 209.679 104.316 211.473 105.144V108.824C210.001 108.134 208.437 107.72 206.275 107.72C200.295 107.72 197.857 111.492 197.857 115.954C197.857 120.416 200.341 124.188 206.367 124.188C208.713 124.188 210.185 123.866 211.611 123.36Z" fill="white"/>
<path d="M184.71 98.428C184.71 96.68 185.86 95.668 187.47 95.668C189.08 95.668 190.23 96.68 190.23 98.428C190.23 100.176 189.08 101.188 187.47 101.188C185.86 101.188 184.71 100.176 184.71 98.428ZM185.446 127.5V104.5H189.402V127.5H185.446Z" fill="white"/>
<path d="M173.096 127.5H167.806L158.882 104.5H163.022L170.474 124.142L177.88 104.5H182.02L173.096 127.5Z" fill="white"/>
<path d="M149.913 113.93V127.5H146.049V104.5H149.913V108.548C151.247 105.834 153.547 103.902 158.055 104.178V108.042C152.995 107.536 149.913 109.054 149.913 113.93Z" fill="white"/>
<path d="M131.218 107.628C127.032 107.628 124.916 110.342 124.502 114.344H137.336C137.106 110.066 135.174 107.628 131.218 107.628ZM140.05 126.58C138.164 127.592 135.266 127.96 132.92 127.96C124.318 127.96 120.546 122.992 120.546 115.954C120.546 109.008 124.41 104.04 131.402 104.04C138.486 104.04 141.338 108.962 141.338 115.954V117.748H124.548C125.1 121.658 127.63 124.188 133.058 124.188C135.726 124.188 137.98 123.682 140.05 122.946V126.58Z" fill="white"/>
<path d="M117.06 119.174C117.06 124.418 113.932 127.96 106.434 127.96C100.592 127.96 97.8782 126.81 95.5322 125.614V121.382C98.3382 122.854 102.662 123.912 106.664 123.912C111.218 123.912 112.92 122.118 112.92 119.45C112.92 116.782 111.264 115.356 105.514 113.976C98.7062 112.32 95.6702 109.974 95.6702 105.006C95.6702 100.314 99.2582 96.8184 106.296 96.8184C110.666 96.8184 113.472 97.8764 115.542 99.0264V103.166C112.506 101.418 109.24 100.866 106.112 100.866C102.156 100.866 99.8102 102.246 99.8102 105.006C99.8102 107.49 101.742 108.732 107.078 110.066C113.472 111.676 117.06 113.746 117.06 119.174Z" fill="white"/>
<path d="M66.0585 116C66.0585 121.52 68.2665 124.28 72.3605 124.28C75.9025 124.28 79.0765 122.026 79.0765 116.92V115.08C79.0765 109.974 76.1785 107.72 72.8205 107.72C68.3585 107.72 66.0585 110.664 66.0585 116ZM79.0765 127.5V123.36C77.6045 126.396 74.8445 127.96 71.3025 127.96C65.1845 127.96 62.1025 122.762 62.1025 116C62.1025 109.514 65.3225 104.04 71.7625 104.04C75.1205 104.04 77.6965 105.558 79.0765 108.548V104.5H83.0325V127.5H79.0765Z" fill="white"/>
<path d="M52.3874 113.93V127.5H48.5234V104.5H52.3874V108.548C53.7214 105.834 56.0214 103.902 60.5294 104.178V108.042C55.4694 107.536 52.3874 109.054 52.3874 113.93Z" fill="white"/>
<path d="M37.8604 98.428C37.8604 96.68 39.0103 95.668 40.6203 95.668C42.2304 95.668 43.3804 96.68 43.3804 98.428C43.3804 100.176 42.2304 101.188 40.6203 101.188C39.0103 101.188 37.8604 100.176 37.8604 98.428ZM38.5964 127.5V104.5H42.5523V127.5H38.5964Z" fill="white"/>
<path d="M28.9544 118.576V97.2783H33.0944V118.3C33.0944 123.866 30.6564 127.684 24.9524 127.684C22.7904 127.684 21.1344 127.316 19.9844 126.902V122.9C21.2264 123.406 22.7444 123.682 24.2624 123.682C27.7584 123.682 28.9544 121.566 28.9544 118.576Z" fill="white"/>
<path d="M95.1885 18.75C95.1885 8.39466 103.583 0 113.938 0H151.438C161.794 0 170.188 8.39466 170.188 18.75V56.25C170.188 66.6053 161.794 75 151.438 75H113.938C103.583 75 95.1885 66.6053 95.1885 56.25V18.75Z" fill="#FFC716"/>
<g clip-path="url(#clip0_55714_36836)">
<path d="M138.003 31.8835H151.951C154.046 31.8835 154.761 33.876 153.484 35.4599L131.668 62.3848C124.617 56.7648 125.281 47.875 130.442 41.3864L138.003 31.8835ZM127.223 42.6126H113.275C111.18 42.6126 110.465 40.62 111.742 39.0362L133.558 12.1113C140.609 17.7313 139.842 26.519 134.733 33.0586L127.223 42.6126Z" fill="#101214"/>
</g>
<defs>
<clipPath id="clip0_55714_36836">
<rect width="43.0129" height="50.2734" fill="white" transform="translate(111.106 12.1104)"/>
</clipPath>
</defs>
</svg>
