<svg width="497" height="137" viewBox="0 0 497 137" fill="none" xmlns="http://www.w3.org/2000/svg">
<path d="M490.151 120.37C490.151 122.394 491.347 123.774 493.785 123.774C494.705 123.774 495.579 123.59 496.269 123.452V127.27C495.579 127.454 494.797 127.638 493.601 127.638C488.679 127.638 486.287 124.74 486.287 120.462V108.18H482.561V104.5H486.287V99.624H490.151V104.5H496.269V108.18H490.151V120.37Z" fill="white"/>
<path d="M479.16 114.022V127.5H475.204V113.608C475.204 109.468 473.548 107.628 469.776 107.628C466.096 107.628 463.566 110.066 463.566 114.712V127.5H459.61V104.5H463.566V108.272C465.038 105.558 467.752 104.04 470.834 104.04C476.124 104.04 479.16 107.674 479.16 114.022Z" fill="white"/>
<path d="M444.779 107.628C440.593 107.628 438.477 110.342 438.063 114.344H450.897C450.667 110.066 448.735 107.628 444.779 107.628ZM453.611 126.58C451.725 127.592 448.827 127.96 446.481 127.96C437.879 127.96 434.107 122.992 434.107 115.954C434.107 109.008 437.971 104.04 444.963 104.04C452.047 104.04 454.899 108.962 454.899 115.954V117.748H438.109C438.661 121.658 441.191 124.188 446.619 124.188C449.287 124.188 451.541 123.682 453.611 122.946V126.58Z" fill="white"/>
<path d="M414.383 114.712V127.5H410.427V113.608C410.427 109.468 408.771 107.628 404.999 107.628C401.319 107.628 398.789 110.066 398.789 114.712V127.5H394.833V104.5H398.789V108.272C400.261 105.558 402.975 104.04 406.057 104.04C409.967 104.04 412.635 106.018 413.785 109.652C415.073 106.11 418.155 104.04 421.973 104.04C427.125 104.04 429.977 107.536 429.977 114.022V127.5H426.021V114.712C426.021 109.974 424.365 107.628 420.593 107.628C416.913 107.628 414.383 110.066 414.383 114.712Z" fill="white"/>
<path d="M380.002 107.628C375.816 107.628 373.7 110.342 373.286 114.344H386.12C385.89 110.066 383.958 107.628 380.002 107.628ZM388.834 126.58C386.948 127.592 384.05 127.96 381.704 127.96C373.102 127.96 369.33 122.992 369.33 115.954C369.33 109.008 373.194 104.04 380.186 104.04C387.27 104.04 390.122 108.962 390.122 115.954V117.748H373.332C373.884 121.658 376.414 124.188 381.842 124.188C384.51 124.188 386.764 123.682 388.834 122.946V126.58Z" fill="white"/>
<path d="M360.876 125.66V123.36C359.404 126.396 356.644 127.96 353.102 127.96C347.03 127.96 343.994 122.762 343.994 116C343.994 109.514 347.168 104.04 353.562 104.04C356.92 104.04 359.496 105.558 360.876 108.548V104.5H364.74V125.43C364.74 132.192 361.566 136.746 353.332 136.746C349.468 136.746 347.352 136.24 345.144 135.504V131.64C347.674 132.468 350.296 133.02 353.148 133.02C358.898 133.02 360.876 129.938 360.876 125.66ZM347.858 116C347.858 121.52 350.066 124.28 354.16 124.28C357.702 124.28 360.876 122.026 360.876 116.92V115.08C360.876 109.974 357.978 107.72 354.62 107.72C350.158 107.72 347.858 110.664 347.858 116Z" fill="white"/>
<path d="M322.435 116C322.435 121.52 324.643 124.28 328.737 124.28C332.279 124.28 335.453 122.026 335.453 116.92V115.08C335.453 109.974 332.555 107.72 329.197 107.72C324.735 107.72 322.435 110.664 322.435 116ZM335.453 127.5V123.36C333.981 126.396 331.221 127.96 327.679 127.96C321.561 127.96 318.479 122.762 318.479 116C318.479 109.514 321.699 104.04 328.139 104.04C331.497 104.04 334.073 105.558 335.453 108.548V104.5H339.409V127.5H335.453Z" fill="white"/>
<path d="M314.342 114.022V127.5H310.386V113.608C310.386 109.468 308.73 107.628 304.958 107.628C301.278 107.628 298.748 110.066 298.748 114.712V127.5H294.792V104.5H298.748V108.272C300.22 105.558 302.934 104.04 306.016 104.04C311.306 104.04 314.342 107.674 314.342 114.022Z" fill="white"/>
<path d="M271.853 116C271.853 121.52 274.061 124.28 278.155 124.28C281.697 124.28 284.871 122.026 284.871 116.92V115.08C284.871 109.974 281.973 107.72 278.615 107.72C274.153 107.72 271.853 110.664 271.853 116ZM284.871 127.5V123.36C283.399 126.396 280.638 127.96 277.096 127.96C270.978 127.96 267.896 122.762 267.896 116C267.896 109.514 271.116 104.04 277.556 104.04C280.914 104.04 283.491 105.558 284.871 108.548V104.5H288.827V127.5H284.871Z" fill="white"/>
<path d="M237.702 110.986L233.562 99.7618V127.5H229.422V97.2778H236.598L243.452 114.62L246.258 122.946L249.064 114.62L255.964 97.2778H262.634V127.5H258.494V100.084L254.952 110.986L248.282 127.5H244.28L237.702 110.986Z" fill="white"/>
<path d="M205.436 107.628C201.25 107.628 199.134 110.342 198.72 114.344H211.554C211.324 110.066 209.392 107.628 205.436 107.628ZM214.268 126.58C212.382 127.592 209.484 127.96 207.138 127.96C198.536 127.96 194.764 122.992 194.764 115.954C194.764 109.008 198.628 104.04 205.62 104.04C212.704 104.04 215.556 108.962 215.556 115.954V117.748H198.766C199.318 121.658 201.848 124.188 207.276 124.188C209.944 124.188 212.198 123.682 214.268 122.946V126.58Z" fill="white"/>
<path d="M191.628 123.36V126.902C190.248 127.638 188.132 127.96 186.016 127.96C177.828 127.96 174.01 122.992 174.01 115.954C174.01 109.008 177.828 104.04 186.016 104.04C188.086 104.04 189.696 104.316 191.49 105.144V108.824C190.018 108.134 188.454 107.72 186.292 107.72C180.312 107.72 177.874 111.492 177.874 115.954C177.874 120.416 180.358 124.188 186.384 124.188C188.73 124.188 190.202 123.866 191.628 123.36Z" fill="white"/>
<path d="M164.726 98.428C164.726 96.68 165.876 95.668 167.486 95.668C169.096 95.668 170.246 96.68 170.246 98.428C170.246 100.176 169.096 101.188 167.486 101.188C165.876 101.188 164.726 100.176 164.726 98.428ZM165.462 127.5V104.5H169.418V127.5H165.462Z" fill="white"/>
<path d="M153.111 127.5H147.821L138.897 104.5H143.037L150.489 124.142L157.895 104.5H162.035L153.111 127.5Z" fill="white"/>
<path d="M129.929 113.93V127.5H126.065V104.5H129.929V108.548C131.263 105.834 133.563 103.902 138.071 104.178V108.042C133.011 107.536 129.929 109.054 129.929 113.93Z" fill="white"/>
<path d="M111.234 107.628C107.048 107.628 104.933 110.342 104.519 114.344H117.353C117.123 110.066 115.19 107.628 111.234 107.628ZM120.066 126.58C118.18 127.592 115.283 127.96 112.937 127.96C104.335 127.96 100.562 122.992 100.562 115.954C100.562 109.008 104.427 104.04 111.419 104.04C118.503 104.04 121.354 108.962 121.354 115.954V117.748H104.564C105.116 121.658 107.647 124.188 113.075 124.188C115.743 124.188 117.996 123.682 120.066 122.946V126.58Z" fill="white"/>
<path d="M97.0759 119.174C97.0759 124.418 93.9479 127.96 86.4499 127.96C80.6079 127.96 77.8939 126.81 75.5479 125.614V121.382C78.3539 122.854 82.6779 123.912 86.6799 123.912C91.2339 123.912 92.9359 122.118 92.9359 119.45C92.9359 116.782 91.2799 115.356 85.5299 113.976C78.7219 112.32 75.6859 109.974 75.6859 105.006C75.6859 100.314 79.2739 96.8179 86.3119 96.8179C90.6819 96.8179 93.4879 97.8759 95.5579 99.0259V103.166C92.5219 101.418 89.2559 100.866 86.1279 100.866C82.1719 100.866 79.8259 102.246 79.8259 105.006C79.8259 107.49 81.7578 108.732 87.0938 110.066C93.4878 111.676 97.0759 113.746 97.0759 119.174Z" fill="white"/>
<path d="M46.0751 116C46.0751 121.52 48.2831 124.28 52.3771 124.28C55.9191 124.28 59.0931 122.026 59.0931 116.92V115.08C59.0931 109.974 56.1951 107.72 52.8371 107.72C48.3751 107.72 46.0751 110.664 46.0751 116ZM59.0931 127.5V123.36C57.6211 126.396 54.8611 127.96 51.3191 127.96C45.2011 127.96 42.1191 122.762 42.1191 116C42.1191 109.514 45.3391 104.04 51.7791 104.04C55.1371 104.04 57.7131 105.558 59.0931 108.548V104.5H63.0491V127.5H59.0931Z" fill="white"/>
<path d="M32.404 113.93V127.5H28.54V104.5H32.404V108.548C33.738 105.834 36.038 103.902 40.546 104.178V108.042C35.486 107.536 32.404 109.054 32.404 113.93Z" fill="white"/>
<path d="M17.876 98.428C17.876 96.68 19.026 95.668 20.636 95.668C22.246 95.668 23.396 96.68 23.396 98.428C23.396 100.176 22.246 101.188 20.636 101.188C19.026 101.188 17.876 100.176 17.876 98.428ZM18.612 127.5V104.5H22.568V127.5H18.612Z" fill="white"/>
<path d="M8.97 118.576V97.2778H13.11V118.3C13.11 123.866 10.672 127.684 4.968 127.684C2.806 127.684 1.15 127.316 0 126.902V122.9C1.242 123.406 2.76 123.682 4.278 123.682C7.774 123.682 8.97 121.566 8.97 118.576Z" fill="white"/>
<path d="M211.446 18.75C211.446 8.39466 219.841 0 230.196 0H267.696C278.052 0 286.446 8.39466 286.446 18.75V56.25C286.446 66.6053 278.052 75 267.696 75H230.196C219.841 75 211.446 66.6053 211.446 56.25V18.75Z" fill="#FFC716"/>
<g clip-path="url(#clip0_55714_35882)">
<path d="M254.261 31.883H268.209C270.303 31.883 271.019 33.8756 269.741 35.4594L247.926 62.3843C240.875 56.7643 241.539 47.8745 246.699 41.3859L254.261 31.883ZM243.481 42.6121H229.533C227.438 42.6121 226.723 40.6196 228 39.0357L249.816 12.1108C256.867 17.7308 256.1 26.5185 250.991 33.0581L243.481 42.6121Z" fill="#101214"/>
</g>
<defs>
<clipPath id="clip0_55714_35882">
<rect width="43.0129" height="50.2734" fill="white" transform="translate(227.364 12.1104)"/>
</clipPath>
</defs>
</svg>
