<svg width="267" height="183" viewBox="0 0 267 183" fill="none" xmlns="http://www.w3.org/2000/svg">
<path d="M260.728 166.37C260.728 168.394 261.924 169.774 264.362 169.774C265.282 169.774 266.156 169.59 266.846 169.452V173.27C266.156 173.454 265.374 173.638 264.178 173.638C259.256 173.638 256.864 170.74 256.864 166.462V154.18H253.138V150.5H256.864V145.624H260.728V150.5H266.846V154.18H260.728V166.37Z" fill="#101214"/>
<path d="M249.738 160.022V173.5H245.782V159.608C245.782 155.468 244.126 153.628 240.354 153.628C236.674 153.628 234.144 156.066 234.144 160.712V173.5H230.188V150.5H234.144V154.272C235.616 151.558 238.33 150.04 241.412 150.04C246.702 150.04 249.738 153.674 249.738 160.022Z" fill="#101214"/>
<path d="M215.357 153.628C211.171 153.628 209.055 156.342 208.641 160.344H221.475C221.245 156.066 219.313 153.628 215.357 153.628ZM224.189 172.58C222.303 173.592 219.405 173.96 217.059 173.96C208.457 173.96 204.685 168.992 204.685 161.954C204.685 155.008 208.549 150.04 215.541 150.04C222.625 150.04 225.477 154.962 225.477 161.954V163.748H208.687C209.239 167.658 211.769 170.188 217.197 170.188C219.865 170.188 222.119 169.682 224.189 168.946V172.58Z" fill="#101214"/>
<path d="M184.961 160.712V173.5H181.005V159.608C181.005 155.468 179.349 153.628 175.577 153.628C171.897 153.628 169.367 156.066 169.367 160.712V173.5H165.411V150.5H169.367V154.272C170.839 151.558 173.553 150.04 176.635 150.04C180.545 150.04 183.213 152.018 184.363 155.652C185.651 152.11 188.733 150.04 192.551 150.04C197.703 150.04 200.555 153.536 200.555 160.022V173.5H196.599V160.712C196.599 155.974 194.943 153.628 191.171 153.628C187.491 153.628 184.961 156.066 184.961 160.712Z" fill="#101214"/>
<path d="M150.579 153.628C146.393 153.628 144.277 156.342 143.863 160.344H156.697C156.467 156.066 154.535 153.628 150.579 153.628ZM159.411 172.58C157.525 173.592 154.627 173.96 152.281 173.96C143.679 173.96 139.907 168.992 139.907 161.954C139.907 155.008 143.771 150.04 150.763 150.04C157.847 150.04 160.699 154.962 160.699 161.954V163.748H143.909C144.461 167.658 146.991 170.188 152.419 170.188C155.087 170.188 157.341 169.682 159.411 168.946V172.58Z" fill="#101214"/>
<path d="M131.454 171.66V169.36C129.982 172.396 127.222 173.96 123.68 173.96C117.608 173.96 114.572 168.762 114.572 162C114.572 155.514 117.746 150.04 124.14 150.04C127.498 150.04 130.074 151.558 131.454 154.548V150.5H135.318V171.43C135.318 178.192 132.144 182.746 123.91 182.746C120.046 182.746 117.93 182.24 115.722 181.504V177.64C118.252 178.468 120.874 179.02 123.726 179.02C129.476 179.02 131.454 175.938 131.454 171.66ZM118.436 162C118.436 167.52 120.644 170.28 124.738 170.28C128.28 170.28 131.454 168.026 131.454 162.92V161.08C131.454 155.974 128.556 153.72 125.198 153.72C120.736 153.72 118.436 156.664 118.436 162Z" fill="#101214"/>
<path d="M93.0119 162C93.0119 167.52 95.2199 170.28 99.3139 170.28C102.856 170.28 106.03 168.026 106.03 162.92V161.08C106.03 155.974 103.132 153.72 99.7739 153.72C95.3119 153.72 93.0119 156.664 93.0119 162ZM106.03 173.5V169.36C104.558 172.396 101.798 173.96 98.2559 173.96C92.1379 173.96 89.0559 168.762 89.0559 162C89.0559 155.514 92.2759 150.04 98.7159 150.04C102.074 150.04 104.65 151.558 106.03 154.548V150.5H109.986V173.5H106.03Z" fill="#101214"/>
<path d="M84.9196 160.022V173.5H80.9636V159.608C80.9636 155.468 79.3076 153.628 75.5356 153.628C71.8556 153.628 69.3256 156.066 69.3256 160.712V173.5H65.3696V150.5H69.3256V154.272C70.7976 151.558 73.5116 150.04 76.5936 150.04C81.8836 150.04 84.9196 153.674 84.9196 160.022Z" fill="#101214"/>
<path d="M42.4299 162C42.4299 167.52 44.6379 170.28 48.7319 170.28C52.2739 170.28 55.4479 168.026 55.4479 162.92V161.08C55.4479 155.974 52.5499 153.72 49.1919 153.72C44.7299 153.72 42.4299 156.664 42.4299 162ZM55.4479 173.5V169.36C53.9759 172.396 51.2159 173.96 47.6739 173.96C41.5559 173.96 38.4739 168.762 38.4739 162C38.4739 155.514 41.6939 150.04 48.1339 150.04C51.4919 150.04 54.0679 151.558 55.4479 154.548V150.5H59.4039V173.5H55.4479Z" fill="#101214"/>
<path d="M8.28 156.986L4.14 145.762V173.5H0V143.278H7.176L14.03 160.62L16.836 168.946L19.642 160.62L26.542 143.278H33.212V173.5H29.072V146.084L25.53 156.986L18.86 173.5H14.858L8.28 156.986Z" fill="#101214"/>
<path d="M225.419 107.628C221.233 107.628 219.117 110.342 218.703 114.344H231.537C231.307 110.066 229.375 107.628 225.419 107.628ZM234.251 126.58C232.365 127.592 229.467 127.96 227.121 127.96C218.519 127.96 214.747 122.992 214.747 115.954C214.747 109.008 218.611 104.04 225.603 104.04C232.687 104.04 235.539 108.962 235.539 115.954V117.748H218.749C219.301 121.658 221.831 124.188 227.259 124.188C229.927 124.188 232.181 123.682 234.251 122.946V126.58Z" fill="#101214"/>
<path d="M211.611 123.36V126.902C210.231 127.638 208.115 127.96 205.999 127.96C197.811 127.96 193.993 122.992 193.993 115.954C193.993 109.008 197.811 104.04 205.999 104.04C208.069 104.04 209.679 104.316 211.473 105.144V108.824C210.001 108.134 208.437 107.72 206.275 107.72C200.295 107.72 197.857 111.492 197.857 115.954C197.857 120.416 200.341 124.188 206.367 124.188C208.713 124.188 210.185 123.866 211.611 123.36Z" fill="#101214"/>
<path d="M184.71 98.428C184.71 96.68 185.86 95.668 187.47 95.668C189.08 95.668 190.23 96.68 190.23 98.428C190.23 100.176 189.08 101.188 187.47 101.188C185.86 101.188 184.71 100.176 184.71 98.428ZM185.446 127.5V104.5H189.402V127.5H185.446Z" fill="#101214"/>
<path d="M173.096 127.5H167.806L158.882 104.5H163.022L170.474 124.142L177.88 104.5H182.02L173.096 127.5Z" fill="#101214"/>
<path d="M149.913 113.93V127.5H146.049V104.5H149.913V108.548C151.247 105.834 153.547 103.902 158.055 104.178V108.042C152.995 107.536 149.913 109.054 149.913 113.93Z" fill="#101214"/>
<path d="M131.218 107.628C127.032 107.628 124.916 110.342 124.502 114.344H137.336C137.106 110.066 135.174 107.628 131.218 107.628ZM140.05 126.58C138.164 127.592 135.266 127.96 132.92 127.96C124.318 127.96 120.546 122.992 120.546 115.954C120.546 109.008 124.41 104.04 131.402 104.04C138.486 104.04 141.338 108.962 141.338 115.954V117.748H124.548C125.1 121.658 127.63 124.188 133.058 124.188C135.726 124.188 137.98 123.682 140.05 122.946V126.58Z" fill="#101214"/>
<path d="M117.06 119.174C117.06 124.418 113.932 127.96 106.434 127.96C100.592 127.96 97.8782 126.81 95.5322 125.614V121.382C98.3382 122.854 102.662 123.912 106.664 123.912C111.218 123.912 112.92 122.118 112.92 119.45C112.92 116.782 111.264 115.356 105.514 113.976C98.7062 112.32 95.6702 109.974 95.6702 105.006C95.6702 100.314 99.2582 96.8179 106.296 96.8179C110.666 96.8179 113.472 97.8759 115.542 99.0259V103.166C112.506 101.418 109.24 100.866 106.112 100.866C102.156 100.866 99.8102 102.246 99.8102 105.006C99.8102 107.49 101.742 108.732 107.078 110.066C113.472 111.676 117.06 113.746 117.06 119.174Z" fill="#101214"/>
<path d="M66.0588 116C66.0588 121.52 68.2668 124.28 72.3608 124.28C75.9028 124.28 79.0768 122.026 79.0768 116.92V115.08C79.0768 109.974 76.1788 107.72 72.8208 107.72C68.3588 107.72 66.0588 110.664 66.0588 116ZM79.0768 127.5V123.36C77.6048 126.396 74.8448 127.96 71.3028 127.96C65.1848 127.96 62.1028 122.762 62.1028 116C62.1028 109.514 65.3228 104.04 71.7628 104.04C75.1208 104.04 77.6968 105.558 79.0768 108.548V104.5H83.0328V127.5H79.0768Z" fill="#101214"/>
<path d="M52.3879 113.93V127.5H48.5239V104.5H52.3879V108.548C53.7219 105.834 56.0219 103.902 60.5299 104.178V108.042C55.4699 107.536 52.3879 109.054 52.3879 113.93Z" fill="#101214"/>
<path d="M37.8601 98.428C37.8601 96.68 39.0101 95.668 40.6201 95.668C42.2301 95.668 43.3801 96.68 43.3801 98.428C43.3801 100.176 42.2301 101.188 40.6201 101.188C39.0101 101.188 37.8601 100.176 37.8601 98.428ZM38.5961 127.5V104.5H42.5521V127.5H38.5961Z" fill="#101214"/>
<path d="M28.9541 118.576V97.2781H33.0941V118.3C33.0941 123.866 30.6561 127.684 24.9521 127.684C22.7901 127.684 21.1341 127.316 19.9841 126.902V122.9C21.2261 123.406 22.7441 123.682 24.2621 123.682C27.7581 123.682 28.9541 121.566 28.9541 118.576Z" fill="#101214"/>
<path d="M95.1882 18.75C95.1882 8.39466 103.583 0 113.938 0H151.438C161.794 0 170.188 8.39466 170.188 18.75V56.25C170.188 66.6053 161.794 75 151.438 75H113.938C103.583 75 95.1882 66.6053 95.1882 56.25V18.75Z" fill="#FFC716"/>
<g clip-path="url(#clip0_1_6287)">
<path d="M138.003 31.8828H151.951C154.046 31.8828 154.761 33.8753 153.484 35.4591L131.668 62.384C124.617 56.764 125.281 47.8742 130.442 41.3857L138.003 31.8828ZM127.223 42.6119H113.275C111.18 42.6119 110.465 40.6193 111.742 39.0355L133.558 12.1106C140.609 17.7306 139.842 26.5182 134.733 33.0579L127.223 42.6119Z" fill="#101214"/>
</g>
<defs>
<clipPath id="clip0_1_6287">
<rect width="43.0129" height="50.2734" fill="white" transform="translate(111.106 12.1101)"/>
</clipPath>
</defs>
</svg>
