<svg width="497" height="137" viewBox="0 0 497 137" fill="none" xmlns="http://www.w3.org/2000/svg">
<path d="M490.151 120.37C490.151 122.394 491.347 123.774 493.785 123.774C494.705 123.774 495.579 123.59 496.269 123.452V127.27C495.579 127.454 494.797 127.638 493.601 127.638C488.679 127.638 486.287 124.74 486.287 120.462V108.18H482.561V104.5H486.287V99.624H490.151V104.5H496.269V108.18H490.151V120.37Z" fill="#101214"/>
<path d="M479.16 114.022V127.5H475.204V113.608C475.204 109.468 473.548 107.628 469.776 107.628C466.096 107.628 463.566 110.066 463.566 114.712V127.5H459.61V104.5H463.566V108.272C465.038 105.558 467.752 104.04 470.834 104.04C476.124 104.04 479.16 107.674 479.16 114.022Z" fill="#101214"/>
<path d="M444.779 107.628C440.593 107.628 438.477 110.342 438.063 114.344H450.897C450.667 110.066 448.735 107.628 444.779 107.628ZM453.611 126.58C451.725 127.592 448.827 127.96 446.481 127.96C437.879 127.96 434.107 122.992 434.107 115.954C434.107 109.008 437.971 104.04 444.963 104.04C452.047 104.04 454.899 108.962 454.899 115.954V117.748H438.109C438.661 121.658 441.191 124.188 446.619 124.188C449.287 124.188 451.541 123.682 453.611 122.946V126.58Z" fill="#101214"/>
<path d="M414.383 114.712V127.5H410.427V113.608C410.427 109.468 408.771 107.628 404.999 107.628C401.319 107.628 398.789 110.066 398.789 114.712V127.5H394.833V104.5H398.789V108.272C400.261 105.558 402.975 104.04 406.057 104.04C409.967 104.04 412.635 106.018 413.785 109.652C415.073 106.11 418.155 104.04 421.973 104.04C427.125 104.04 429.977 107.536 429.977 114.022V127.5H426.021V114.712C426.021 109.974 424.365 107.628 420.593 107.628C416.913 107.628 414.383 110.066 414.383 114.712Z" fill="#101214"/>
<path d="M380.002 107.628C375.816 107.628 373.7 110.342 373.286 114.344H386.12C385.89 110.066 383.958 107.628 380.002 107.628ZM388.834 126.58C386.948 127.592 384.05 127.96 381.704 127.96C373.102 127.96 369.33 122.992 369.33 115.954C369.33 109.008 373.194 104.04 380.186 104.04C387.27 104.04 390.122 108.962 390.122 115.954V117.748H373.332C373.884 121.658 376.414 124.188 381.842 124.188C384.51 124.188 386.764 123.682 388.834 122.946V126.58Z" fill="#101214"/>
<path d="M360.876 125.66V123.36C359.404 126.396 356.644 127.96 353.102 127.96C347.03 127.96 343.994 122.762 343.994 116C343.994 109.514 347.168 104.04 353.562 104.04C356.92 104.04 359.496 105.558 360.876 108.548V104.5H364.74V125.43C364.74 132.192 361.566 136.746 353.332 136.746C349.468 136.746 347.352 136.24 345.144 135.504V131.64C347.674 132.468 350.296 133.02 353.148 133.02C358.898 133.02 360.876 129.938 360.876 125.66ZM347.858 116C347.858 121.52 350.066 124.28 354.16 124.28C357.702 124.28 360.876 122.026 360.876 116.92V115.08C360.876 109.974 357.978 107.72 354.62 107.72C350.158 107.72 347.858 110.664 347.858 116Z" fill="#101214"/>
<path d="M322.434 116C322.434 121.52 324.642 124.28 328.736 124.28C332.278 124.28 335.452 122.026 335.452 116.92V115.08C335.452 109.974 332.554 107.72 329.196 107.72C324.734 107.72 322.434 110.664 322.434 116ZM335.452 127.5V123.36C333.98 126.396 331.22 127.96 327.678 127.96C321.56 127.96 318.478 122.762 318.478 116C318.478 109.514 321.698 104.04 328.138 104.04C331.496 104.04 334.072 105.558 335.452 108.548V104.5H339.408V127.5H335.452Z" fill="#101214"/>
<path d="M314.342 114.022V127.5H310.386V113.608C310.386 109.468 308.73 107.628 304.958 107.628C301.278 107.628 298.748 110.066 298.748 114.712V127.5H294.792V104.5H298.748V108.272C300.22 105.558 302.934 104.04 306.016 104.04C311.306 104.04 314.342 107.674 314.342 114.022Z" fill="#101214"/>
<path d="M271.852 116C271.852 121.52 274.06 124.28 278.154 124.28C281.696 124.28 284.87 122.026 284.87 116.92V115.08C284.87 109.974 281.972 107.72 278.614 107.72C274.152 107.72 271.852 110.664 271.852 116ZM284.87 127.5V123.36C283.398 126.396 280.638 127.96 277.096 127.96C270.978 127.96 267.896 122.762 267.896 116C267.896 109.514 271.116 104.04 277.556 104.04C280.914 104.04 283.49 105.558 284.87 108.548V104.5H288.826V127.5H284.87Z" fill="#101214"/>
<path d="M237.702 110.986L233.562 99.7621V127.5H229.422V97.2781H236.598L243.452 114.62L246.258 122.946L249.064 114.62L255.964 97.2781H262.634V127.5H258.494V100.084L254.952 110.986L248.282 127.5H244.28L237.702 110.986Z" fill="#101214"/>
<path d="M205.435 107.628C201.249 107.628 199.133 110.342 198.719 114.344H211.553C211.323 110.066 209.391 107.628 205.435 107.628ZM214.267 126.58C212.381 127.592 209.483 127.96 207.137 127.96C198.535 127.96 194.763 122.992 194.763 115.954C194.763 109.008 198.627 104.04 205.619 104.04C212.703 104.04 215.555 108.962 215.555 115.954V117.748H198.765C199.317 121.658 201.847 124.188 207.275 124.188C209.943 124.188 212.197 123.682 214.267 122.946V126.58Z" fill="#101214"/>
<path d="M191.627 123.36V126.902C190.247 127.638 188.131 127.96 186.015 127.96C177.827 127.96 174.009 122.992 174.009 115.954C174.009 109.008 177.827 104.04 186.015 104.04C188.085 104.04 189.695 104.316 191.489 105.144V108.824C190.017 108.134 188.453 107.72 186.291 107.72C180.311 107.72 177.873 111.492 177.873 115.954C177.873 120.416 180.357 124.188 186.383 124.188C188.729 124.188 190.201 123.866 191.627 123.36Z" fill="#101214"/>
<path d="M164.726 98.428C164.726 96.68 165.876 95.668 167.486 95.668C169.096 95.668 170.246 96.68 170.246 98.428C170.246 100.176 169.096 101.188 167.486 101.188C165.876 101.188 164.726 100.176 164.726 98.428ZM165.462 127.5V104.5H169.418V127.5H165.462Z" fill="#101214"/>
<path d="M153.111 127.5H147.821L138.897 104.5H143.037L150.489 124.142L157.895 104.5H162.035L153.111 127.5Z" fill="#101214"/>
<path d="M129.929 113.93V127.5H126.065V104.5H129.929V108.548C131.263 105.834 133.563 103.902 138.071 104.178V108.042C133.011 107.536 129.929 109.054 129.929 113.93Z" fill="#101214"/>
<path d="M111.234 107.628C107.048 107.628 104.932 110.342 104.518 114.344H117.352C117.122 110.066 115.19 107.628 111.234 107.628ZM120.066 126.58C118.18 127.592 115.282 127.96 112.936 127.96C104.334 127.96 100.562 122.992 100.562 115.954C100.562 109.008 104.426 104.04 111.418 104.04C118.502 104.04 121.354 108.962 121.354 115.954V117.748H104.564C105.116 121.658 107.646 124.188 113.074 124.188C115.742 124.188 117.996 123.682 120.066 122.946V126.58Z" fill="#101214"/>
<path d="M97.0761 119.174C97.0761 124.418 93.9481 127.96 86.4501 127.96C80.6081 127.96 77.8941 126.81 75.5481 125.614V121.382C78.3541 122.854 82.6781 123.912 86.6801 123.912C91.2341 123.912 92.9361 122.118 92.9361 119.45C92.9361 116.782 91.2801 115.356 85.5301 113.976C78.7221 112.32 75.6861 109.974 75.6861 105.006C75.6861 100.314 79.2741 96.8179 86.3121 96.8179C90.6821 96.8179 93.4881 97.8759 95.5581 99.0259V103.166C92.5221 101.418 89.2561 100.866 86.1281 100.866C82.1721 100.866 79.8261 102.246 79.8261 105.006C79.8261 107.49 81.7581 108.732 87.0941 110.066C93.4881 111.676 97.0761 113.746 97.0761 119.174Z" fill="#101214"/>
<path d="M46.0747 116C46.0747 121.52 48.2827 124.28 52.3767 124.28C55.9187 124.28 59.0927 122.026 59.0927 116.92V115.08C59.0927 109.974 56.1947 107.72 52.8367 107.72C48.3747 107.72 46.0747 110.664 46.0747 116ZM59.0927 127.5V123.36C57.6207 126.396 54.8607 127.96 51.3187 127.96C45.2007 127.96 42.1187 122.762 42.1187 116C42.1187 109.514 45.3387 104.04 51.7787 104.04C55.1367 104.04 57.7127 105.558 59.0927 108.548V104.5H63.0487V127.5H59.0927Z" fill="#101214"/>
<path d="M32.4038 113.93V127.5H28.5398V104.5H32.4038V108.548C33.7378 105.834 36.0378 103.902 40.5458 104.178V108.042C35.4858 107.536 32.4038 109.054 32.4038 113.93Z" fill="#101214"/>
<path d="M17.876 98.428C17.876 96.68 19.026 95.668 20.636 95.668C22.246 95.668 23.396 96.68 23.396 98.428C23.396 100.176 22.246 101.188 20.636 101.188C19.026 101.188 17.876 100.176 17.876 98.428ZM18.612 127.5V104.5H22.568V127.5H18.612Z" fill="#101214"/>
<path d="M8.97 118.576V97.2781H13.11V118.3C13.11 123.866 10.672 127.684 4.968 127.684C2.806 127.684 1.15 127.316 0 126.902V122.9C1.242 123.406 2.76 123.682 4.278 123.682C7.774 123.682 8.97 121.566 8.97 118.576Z" fill="#101214"/>
<path d="M211.446 18.75C211.446 8.39466 219.841 0 230.196 0H267.696C278.052 0 286.446 8.39466 286.446 18.75V56.25C286.446 66.6053 278.052 75 267.696 75H230.196C219.841 75 211.446 66.6053 211.446 56.25V18.75Z" fill="#FFC716"/>
<g clip-path="url(#clip0_1_6618)">
<path d="M254.261 31.8828H268.209C270.304 31.8828 271.019 33.8753 269.742 35.4591L247.926 62.384C240.876 56.764 241.54 47.8742 246.7 41.3857L254.261 31.8828ZM243.481 42.6119H229.533C227.439 42.6119 226.723 40.6193 228.001 39.0355L249.816 12.1106C256.867 17.7306 256.101 26.5182 250.992 33.0579L243.481 42.6119Z" fill="#101214"/>
</g>
<defs>
<clipPath id="clip0_1_6618">
<rect width="43.0129" height="50.2734" fill="white" transform="translate(227.365 12.1101)"/>
</clipPath>
</defs>
</svg>
